<svg xmlns="http://www.w3.org/2000/svg" width="200" height="40" fill="none" viewBox="0 0 317 64" class="w-[130px] md:w-[160px] "><mask id="a" width="113" height="59" x="204" y="0" maskUnits="userSpaceOnUse" style="mask-type:luminance"><path fill="#fff" d="M204.19 0h111.984v58.365H204.19z"></path></mask><g mask="url(#a)"><mask id="b" width="112" height="59" x="204" y="0" maskUnits="userSpaceOnUse" style="mask-type:luminance"><path fill="#fff" d="M247.471 0h60.354a7.99 7.99 0 0 1 6.932 4.031 7.98 7.98 0 0 1-.067 8.016l-20.292 34.27a24.56 24.56 0 0 1-21.135 12.048h-60.355a7.99 7.99 0 0 1-6.932-4.026 8 8 0 0 1 .068-8.021l20.297-34.271A24.56 24.56 0 0 1 247.471 0"></path></mask><g mask="url(#b)"><path fill="#000" d="M198.908 0h122.917v58.365H198.908z"></path></g></g><path fill="#F14A16" d="M26.188 5.388q8.937 0 14.375 6c3.635 4 5.458 9.265 5.458 15.792 0 6.432-1.781 11.614-5.334 15.541q-5.311 5.875-14.187 5.875-8.312 0-12.938-6.125v20.854H0V5.867h13.563v5.563q4.702-6.041 12.624-6.042Zm-3.292 32.458q4.227.001 6.854-3.083c1.76-2.068 2.646-4.719 2.646-7.958 0-3.25-.886-5.886-2.646-7.917q-2.627-3.063-6.854-3.063c-2.709 0-4.948 1.021-6.709 3.063q-2.625 3.045-2.625 7.896-.001 4.96 2.584 8.02c1.734 2.032 3.984 3.042 6.75 3.042"></path><path fill="#F14A16" d="M68.432 5.388q10.35.001 16.709 5.917 6.352 5.919 6.354 15.645-.001 9.736-6.355 15.688-6.358 5.96-16.708 5.958-10.42.001-16.77-5.958c-4.24-3.969-6.355-9.198-6.355-15.688 0-6.484 2.115-11.698 6.354-15.645q6.35-5.916 16.771-5.917m0 10.75c-2.823 0-5.104 1.02-6.854 3.062-1.75 2.032-2.625 4.667-2.625 7.917 0 3.292.875 5.948 2.625 7.958 1.75 2 4.031 3 6.854 3q4.166 0 6.792-3c1.75-2.01 2.625-4.666 2.625-7.958 0-3.25-.875-5.885-2.625-7.917q-2.626-3.062-6.792-3.062m52.441-10.75q8.937 0 14.375 6c3.635 4 5.458 9.265 5.458 15.792 0 6.432-1.781 11.614-5.333 15.541q-5.313 5.875-14.188 5.875-8.312 0-12.937-6.125v20.854H94.685V5.867h13.563v5.563q4.702-6.041 12.625-6.042m-3.292 32.458q4.228.001 6.854-3.083c1.761-2.068 2.646-4.719 2.646-7.958 0-3.25-.885-5.886-2.646-7.917q-2.626-3.063-6.854-3.063c-2.708 0-4.948 1.021-6.708 3.063q-2.625 3.045-2.625 7.896-.001 4.96 2.583 8.02c1.734 2.032 3.984 3.042 6.75 3.042"></path><path fill="#F14A16" d="M162.034 5.388q10.977 0 16.5 6.75 5.515 6.735 4.812 18.5h-29.708q1.017 3.751 3.604 5.791c1.719 1.365 3.839 2.042 6.354 2.042q5.791 0 10.105-4.312l7.145 6.979q-6.836 7.46-18.416 7.458-10.275 0-16.354-5.875-6.085-5.892-6.084-15.604-.001-9.812 6.084-15.77c4.052-3.97 9.375-5.96 15.958-5.96Zm-8.625 17.958h16.937q0-3.828-2.25-6.187c-1.489-1.568-3.458-2.354-5.916-2.354q-3.439 0-5.792 2.312c-1.573 1.542-2.562 3.62-2.979 6.23Zm46.406-17.479v7.125c2.968-5.068 7.541-7.651 13.708-7.75v12.23c-3.865-.376-7.021.265-9.479 1.916q-3.69 2.46-4.229 7.02v21.709h-13.563V5.867z"></path><path fill="#fff" d="M252.006 21.659q5.436.002 8.459 2.541 3.038 2.526 3.083 7.042v17.292h-8.313v-3.042c-1.739 2.292-4.437 3.437-8.104 3.437q-4.171 0-6.625-2.312-2.459-2.313-2.458-6c0-2.51.875-4.464 2.625-5.854 1.75-1.401 4.26-2.115 7.542-2.146h6.979v-.396q0-1.976-1.313-3.083c-.864-.735-2.146-1.104-3.854-1.104-2.39 0-5.031.74-7.917 2.208l-2.395-5.583c4.291-2 8.385-3 12.291-3m-2.271 21.52q2.018 0 3.542-1c1.011-.677 1.651-1.562 1.917-2.645v-2.355h-5.354q-3.835.001-3.834 2.855c0 .99.323 1.76.979 2.312q.978.834 2.75.833M267.84 11.2q1.267-1.25 3.229-1.25c1.302 0 2.375.417 3.208 1.25.844.834 1.271 1.912 1.271 3.23 0 1.307-.427 2.39-1.271 3.25-.833.848-1.906 1.27-3.208 1.27q-1.962.001-3.229-1.27-1.25-1.29-1.25-3.25 0-1.978 1.25-3.23m7.417 37.333h-8.459V22.054h8.459z"></path></svg>